<svg width="40" height="40" viewBox="0 0 40 40" fill="none" xmlns="http://www.w3.org/2000/svg">
<path fill-rule="evenodd" clip-rule="evenodd" d="M2.5 20C2.5 29.665 10.335 37.5 20 37.5C29.665 37.5 37.5 29.665 37.5 20C37.5 10.335 29.665 2.5 20 2.5C10.335 2.5 2.5 10.335 2.5 20ZM40 20C40 31.0457 31.0457 40 20 40C8.95431 40 0 31.0457 0 20C0 8.95431 8.95431 0 20 0C31.0457 0 40 8.95431 40 20ZM28.75 18.75C29.4404 18.75 30 19.3096 30 20C30 20.6904 29.4404 21.25 28.75 21.25H14.2678L19.6339 26.6161C20.122 27.1043 20.122 27.8957 19.6339 28.3839C19.1457 28.872 18.3543 28.872 17.8661 28.3839L10.3661 20.8839C9.87796 20.3957 9.87796 19.6043 10.3661 19.1161L17.8661 11.6161C18.3543 11.128 19.1457 11.128 19.6339 11.6161C20.122 12.1043 20.122 12.8957 19.6339 13.3839L14.2678 18.75H28.75Z" fill="white"/>
</svg>
