<svg width="40" height="40" viewBox="0 0 40 40" fill="none" xmlns="http://www.w3.org/2000/svg">
<path fill-rule="evenodd" clip-rule="evenodd" d="M2.5 20C2.5 29.665 10.335 37.5 20 37.5C29.665 37.5 37.5 29.665 37.5 20C37.5 10.335 29.665 2.5 20 2.5C10.335 2.5 2.5 10.335 2.5 20ZM40 20C40 31.0457 31.0457 40 20 40C8.95431 40 0 31.0457 0 20C0 8.95431 8.95431 0 20 0C31.0457 0 40 8.95431 40 20ZM11.25 18.75C10.5596 18.75 10 19.3096 10 20C10 20.6904 10.5596 21.25 11.25 21.25H25.7322L20.3661 26.6161C19.878 27.1043 19.878 27.8957 20.3661 28.3839C20.8543 28.872 21.6457 28.872 22.1339 28.3839L29.6339 20.8839C30.122 20.3957 30.122 19.6043 29.6339 19.1161L22.1339 11.6161C21.6457 11.128 20.8543 11.128 20.3661 11.6161C19.878 12.1043 19.878 12.8957 20.3661 13.3839L25.7322 18.75H11.25Z" fill="white"/>
</svg>
