<svg width="25" height="18" viewBox="0 0 25 18" fill="none" xmlns="http://www.w3.org/2000/svg">
<path d="M13.0767 0.998047C13.0853 0.998065 13.0945 0.998086 13.1043 0.998111L13.2105 0.998441C14.4432 1.00297 20.6909 1.04826 22.3754 1.50112C23.408 1.77809 24.2212 2.59432 24.4972 3.63042C24.6491 4.19966 24.755 4.95626 24.8288 5.73439L24.8431 5.89026C24.8547 6.0203 24.8655 6.15064 24.8754 6.2805L24.8869 6.43605C24.9855 7.80721 24.997 9.09031 24.9984 9.37104L24.9985 9.40891C24.9985 9.41201 24.9985 9.41708 24.9985 9.41708V9.43834C24.9985 9.43834 24.9985 9.44341 24.9985 9.44651L24.9984 9.48438C24.997 9.77572 24.9846 11.1466 24.8754 12.575L24.8631 12.731L24.85 12.8872C24.7757 13.7461 24.6643 14.5989 24.4972 15.225C24.2212 16.2611 23.408 17.0775 22.3754 17.3543C20.6347 17.8224 14.0216 17.8552 13.1043 17.8575L13.0337 17.8577C13.0279 17.8577 13.0228 17.8577 13.0184 17.8577L12.9896 17.8577C12.9896 17.8577 12.983 17.8577 12.9786 17.8577L12.8927 17.8575C12.4291 17.8564 10.5108 17.8474 8.50194 17.7784L8.2451 17.7693C8.20225 17.7677 8.15938 17.7661 8.11651 17.7645L7.85937 17.7543L7.60282 17.7434C5.93856 17.6704 4.35178 17.5506 3.62184 17.3543C2.5892 17.0775 1.77606 16.2611 1.50007 15.225C1.33287 14.5989 1.2214 13.7461 1.14709 12.8872L1.13399 12.731L1.12167 12.575C1.01636 11.1985 1.00107 9.87549 0.998847 9.5204L0.998582 9.46957C0.998564 9.46499 0.998548 9.46078 0.998535 9.45693V9.39849C0.998548 9.39465 0.998564 9.39043 0.998582 9.38586L0.998847 9.33503C1.00086 9.01345 1.01359 7.898 1.09421 6.66787L1.10464 6.51356C1.10644 6.48776 1.10827 6.46192 1.11013 6.43605L1.12167 6.2805C1.13161 6.15064 1.14235 6.0203 1.15395 5.89026L1.16829 5.73439C1.24213 4.95626 1.34807 4.19966 1.50007 3.63042C1.77606 2.59432 2.5892 1.77809 3.62184 1.50112C4.35178 1.30488 5.93856 1.18517 7.60282 1.11215L7.85937 1.10128L8.11651 1.09112C8.15938 1.08949 8.20225 1.08788 8.2451 1.0863L8.50194 1.07717C10.3826 1.01261 12.1839 1.00066 12.7865 0.998441L12.8927 0.998111C12.9026 0.998086 12.9118 0.998065 12.9203 0.998047H13.0767ZM10.5986 5.81484V13.0406L16.8337 9.42791L10.5986 5.81484Z" fill="white"/>
</svg>
